<mxfile host="app.diagrams.net" modified="2023-05-31T07:21:16.481Z" agent="Mozilla/5.0 (Windows NT 10.0; Win64; x64; rv:109.0) Gecko/20100101 Firefox/113.0" etag="GUXJynWhOyELPCZD50it" version="21.3.6">
  <diagram name="Sayfa -1" id="HwRm-BbcS9411lqsmyV-">
    <mxGraphModel dx="223" dy="-603" grid="1" gridSize="10" guides="1" tooltips="1" connect="1" arrows="1" fold="1" page="1" pageScale="1" pageWidth="827" pageHeight="1169" math="0" shadow="0">
      <root>
        <mxCell id="0" />
        <mxCell id="1" parent="0" />
        <mxCell id="9lApOjVzKTPjJR0Uh4h2-1" value="" style="image;sketch=0;aspect=fixed;html=1;points=[];align=center;fontSize=12;image=img/lib/mscae/Devices_Groups.svg;" parent="1" vertex="1">
          <mxGeometry x="1040" y="1670" width="50" height="50" as="geometry" />
        </mxCell>
        <mxCell id="9lApOjVzKTPjJR0Uh4h2-2" value="" style="image;sketch=0;aspect=fixed;html=1;points=[];align=center;fontSize=12;image=img/lib/mscae/Devices_Groups.svg;" parent="1" vertex="1">
          <mxGeometry x="1040" y="1798" width="50" height="50" as="geometry" />
        </mxCell>
        <mxCell id="9lApOjVzKTPjJR0Uh4h2-7" value="" style="rounded=0;whiteSpace=wrap;html=1;" parent="1" vertex="1">
          <mxGeometry x="1333.5" y="1650" width="480" height="330" as="geometry" />
        </mxCell>
        <mxCell id="9lApOjVzKTPjJR0Uh4h2-8" value="" style="sketch=0;aspect=fixed;pointerEvents=1;shadow=0;dashed=0;html=1;strokeColor=none;labelPosition=center;verticalLabelPosition=bottom;verticalAlign=top;align=center;fillColor=#00188D;shape=mxgraph.mscae.enterprise.web_server" parent="1" vertex="1">
          <mxGeometry x="1380.75" y="1732" width="40" height="52.64" as="geometry" />
        </mxCell>
        <mxCell id="9lApOjVzKTPjJR0Uh4h2-10" value="" style="sketch=0;aspect=fixed;pointerEvents=1;shadow=0;dashed=0;html=1;strokeColor=none;labelPosition=center;verticalLabelPosition=bottom;verticalAlign=top;align=center;fillColor=#00188D;shape=mxgraph.mscae.enterprise.database_generic" parent="1" vertex="1">
          <mxGeometry x="1653" y="1730" width="37" height="50" as="geometry" />
        </mxCell>
        <mxCell id="9lApOjVzKTPjJR0Uh4h2-11" value="Database" style="text;html=1;strokeColor=none;fillColor=none;align=center;verticalAlign=middle;whiteSpace=wrap;rounded=0;" parent="1" vertex="1">
          <mxGeometry x="1640" y="1780" width="60" height="30" as="geometry" />
        </mxCell>
        <mxCell id="9lApOjVzKTPjJR0Uh4h2-12" value="&lt;div&gt;Articles&lt;/div&gt;&lt;div&gt;Exercises&lt;br&gt;&lt;/div&gt;" style="text;html=1;strokeColor=none;fillColor=none;align=center;verticalAlign=middle;whiteSpace=wrap;rounded=0;" parent="1" vertex="1">
          <mxGeometry x="1700" y="1740" width="76" height="30" as="geometry" />
        </mxCell>
        <mxCell id="9lApOjVzKTPjJR0Uh4h2-13" value="" style="endArrow=classic;html=1;rounded=0;exitX=1.08;exitY=0.6;exitDx=0;exitDy=0;exitPerimeter=0;" parent="1" source="9lApOjVzKTPjJR0Uh4h2-1" target="9lApOjVzKTPjJR0Uh4h2-26" edge="1">
          <mxGeometry width="50" height="50" relative="1" as="geometry">
            <mxPoint x="920" y="1670" as="sourcePoint" />
            <mxPoint x="1264.0529142857142" y="1690" as="targetPoint" />
          </mxGeometry>
        </mxCell>
        <mxCell id="9lApOjVzKTPjJR0Uh4h2-14" value="API" style="edgeLabel;html=1;align=center;verticalAlign=middle;resizable=0;points=[];" parent="9lApOjVzKTPjJR0Uh4h2-13" connectable="0" vertex="1">
          <mxGeometry x="-0.2244" y="-1" relative="1" as="geometry">
            <mxPoint x="-5" y="-4" as="offset" />
          </mxGeometry>
        </mxCell>
        <mxCell id="9lApOjVzKTPjJR0Uh4h2-15" value="" style="endArrow=classic;html=1;rounded=0;exitX=1.02;exitY=0.5;exitDx=0;exitDy=0;exitPerimeter=0;" parent="1" source="9lApOjVzKTPjJR0Uh4h2-2" target="9lApOjVzKTPjJR0Uh4h2-26" edge="1">
          <mxGeometry width="50" height="50" relative="1" as="geometry">
            <mxPoint x="900" y="1785" as="sourcePoint" />
            <mxPoint x="1315" y="1841" as="targetPoint" />
          </mxGeometry>
        </mxCell>
        <mxCell id="9lApOjVzKTPjJR0Uh4h2-16" value="API" style="edgeLabel;html=1;align=center;verticalAlign=middle;resizable=0;points=[];" parent="9lApOjVzKTPjJR0Uh4h2-15" connectable="0" vertex="1">
          <mxGeometry x="-0.2244" y="-1" relative="1" as="geometry">
            <mxPoint as="offset" />
          </mxGeometry>
        </mxCell>
        <mxCell id="9lApOjVzKTPjJR0Uh4h2-21" value="&lt;div&gt;HizmetGYM&lt;/div&gt;&lt;div&gt;Server&lt;br&gt;&lt;/div&gt;&amp;nbsp;" style="text;html=1;strokeColor=none;fillColor=none;align=center;verticalAlign=middle;whiteSpace=wrap;rounded=0;" parent="1" vertex="1">
          <mxGeometry x="1365.75" y="1810" width="70" height="20" as="geometry" />
        </mxCell>
        <mxCell id="9lApOjVzKTPjJR0Uh4h2-26" value="" style="sketch=0;outlineConnect=0;fontColor=#232F3E;gradientColor=none;fillColor=#4D27AA;strokeColor=none;dashed=0;verticalLabelPosition=bottom;verticalAlign=top;align=center;html=1;fontSize=12;fontStyle=0;aspect=fixed;pointerEvents=1;shape=mxgraph.aws4.network_load_balancer;" parent="1" vertex="1">
          <mxGeometry x="1212" y="1740" width="58" height="58" as="geometry" />
        </mxCell>
        <mxCell id="9lApOjVzKTPjJR0Uh4h2-27" value="" style="endArrow=classic;html=1;rounded=0;entryX=0.025;entryY=0.703;entryDx=0;entryDy=0;entryPerimeter=0;" parent="1" source="9lApOjVzKTPjJR0Uh4h2-26" target="9lApOjVzKTPjJR0Uh4h2-8" edge="1">
          <mxGeometry width="50" height="50" relative="1" as="geometry">
            <mxPoint x="1330" y="1880" as="sourcePoint" />
            <mxPoint x="1344" y="1820" as="targetPoint" />
          </mxGeometry>
        </mxCell>
        <mxCell id="K91Jy7QAQvhjlmQZcGdJ-1" value="Client X" style="text;html=1;strokeColor=none;fillColor=none;align=center;verticalAlign=middle;whiteSpace=wrap;rounded=0;" vertex="1" parent="1">
          <mxGeometry x="1040" y="1720" width="60" height="32" as="geometry" />
        </mxCell>
        <mxCell id="K91Jy7QAQvhjlmQZcGdJ-2" value="Load blancer" style="text;html=1;strokeColor=none;fillColor=none;align=center;verticalAlign=middle;whiteSpace=wrap;rounded=0;" vertex="1" parent="1">
          <mxGeometry x="1212" y="1798" width="60" height="30" as="geometry" />
        </mxCell>
        <mxCell id="K91Jy7QAQvhjlmQZcGdJ-9" value="" style="rounded=0;whiteSpace=wrap;html=1;fillColor=none;dashed=1;" vertex="1" parent="1">
          <mxGeometry x="1590" y="1700" width="190" height="110" as="geometry" />
        </mxCell>
        <mxCell id="K91Jy7QAQvhjlmQZcGdJ-10" value="read&lt;br style=&quot;border-color: var(--border-color);&quot;&gt;write&lt;br style=&quot;border-color: var(--border-color);&quot;&gt;update" style="edgeStyle=orthogonalEdgeStyle;rounded=0;orthogonalLoop=1;jettySize=auto;html=1;exitX=1;exitY=0.76;exitDx=0;exitDy=0;exitPerimeter=0;entryX=-0.026;entryY=0.655;entryDx=0;entryDy=0;entryPerimeter=0;" edge="1" parent="1" source="9lApOjVzKTPjJR0Uh4h2-8" target="K91Jy7QAQvhjlmQZcGdJ-9">
          <mxGeometry relative="1" as="geometry">
            <mxPoint x="1481.5" y="1982.64" as="sourcePoint" />
            <mxPoint x="1141" y="1940" as="targetPoint" />
          </mxGeometry>
        </mxCell>
        <mxCell id="K91Jy7QAQvhjlmQZcGdJ-11" value="Client Y" style="text;html=1;strokeColor=none;fillColor=none;align=center;verticalAlign=middle;whiteSpace=wrap;rounded=0;" vertex="1" parent="1">
          <mxGeometry x="1045" y="1860" width="60" height="30" as="geometry" />
        </mxCell>
        <mxCell id="K91Jy7QAQvhjlmQZcGdJ-12" value="&lt;b&gt;HizmetGYM application&lt;br&gt;&lt;/b&gt;" style="text;html=1;strokeColor=none;fillColor=none;align=center;verticalAlign=middle;whiteSpace=wrap;rounded=0;" vertex="1" parent="1">
          <mxGeometry x="1340" y="1660" width="60" height="30" as="geometry" />
        </mxCell>
      </root>
    </mxGraphModel>
  </diagram>
</mxfile>
